<?xml version="1.0" encoding="UTF-8" standalone="no"?>
<!-- Created with Vectornator (http://vectornator.io/) -->

<svg
   height="100%"
   stroke-miterlimit="10"
   style="fill-rule:nonzero;clip-rule:evenodd;stroke-linecap:round;stroke-linejoin:round;"
   version="1.1"
   viewBox="0 0 2903.04 2903.04"
   width="100%"
   xml:space="preserve"
   id="svg3"
   sodipodi:docname="logo.svg"
   inkscape:export-filename="logo.png"
   inkscape:export-xdpi="33.862434"
   inkscape:export-ydpi="33.862434"
   inkscape:version="1.3.2 (091e20e, 2023-11-25)"
   xmlns:inkscape="http://www.inkscape.org/namespaces/inkscape"
   xmlns:sodipodi="http://sodipodi.sourceforge.net/DTD/sodipodi-0.dtd"
   xmlns="http://www.w3.org/2000/svg"
   xmlns:svg="http://www.w3.org/2000/svg"
   xmlns:vectornator="http://vectornator.io"><sodipodi:namedview
   id="namedview3"
   pagecolor="#ffffff"
   bordercolor="#000000"
   borderopacity="0.25"
   inkscape:showpageshadow="2"
   inkscape:pageopacity="0.0"
   inkscape:pagecheckerboard="0"
   inkscape:deskcolor="#d1d1d1"
   inkscape:zoom="0.16258818"
   inkscape:cx="2303.3654"
   inkscape:cy="1602.2075"
   inkscape:window-width="1280"
   inkscape:window-height="674"
   inkscape:window-x="0"
   inkscape:window-y="25"
   inkscape:window-maximized="1"
   inkscape:current-layer="svg3" />
<defs
   id="defs1">



</defs>
<path
   d="m 1497.22,2529.28 c -563.66,0 -1020.599,-456.94 -1020.599,-1020.6 0,-563.667 456.939,-1020.605 1020.599,-1020.605 96.2,0 189.29,13.31 277.53,38.188 428.79,120.891 743.07,514.947 743.07,982.417 0,563.66 -456.94,1020.6 -1020.6,1020.6 z"
   fill="none"
   opacity="1"
   stroke="#11c591"
   stroke-linecap="butt"
   stroke-linejoin="miter"
   stroke-width="140"
   vectornator:layerName="(oval)"
   id="path1"
   style="stroke:#aa0088" /><path
   d="m 2101.15,1902.1 c -133.88,211.75 -414.06,274.87 -625.8,140.99 -110,-69.55 140.02,-505.14 328.77,-690.1 65.03,-63.74 122.8,-97.71 156.04,-76.69 211.74,133.88 274.87,414.06 140.99,625.8 z"
   fill="none"
   opacity="1"
   stroke="#11c591"
   stroke-linecap="butt"
   stroke-linejoin="miter"
   stroke-width="140"
   vectornator:layerName="(oval)"
   id="path2"
   style="stroke:#aa0088" /><path
   d="M 927.714,1135.84 C 1070.28,929.849 1352.84,878.43 1558.84,1021 c 143.89,99.58 -390.08,833.31 -516.28,745.97 C 836.568,1624.4 785.149,1341.84 927.714,1135.84 Z"
   fill="#5198ae"
   fill-rule="nonzero"
   opacity="1"
   stroke="#5198ae"
   stroke-linecap="butt"
   stroke-linejoin="miter"
   stroke-width="140"
   vectornator:layerName="(oval)"
   id="path3"
   style="fill:#bc5fd3;stroke:#bc5fd3" />
</svg>
